<svg xmlns="http://www.w3.org/2000/svg" xmlns:xlink="http://www.w3.org/1999/xlink" width="500" zoomAndPan="magnify" viewBox="0 0 375 374.999991" height="500" preserveAspectRatio="xMidYMid meet" version="1.0"><defs><g/></defs><g fill="#010f29" fill-opacity="1"><g transform="translate(163.999627, 214.840846)"><g><path d="M 33.15625 -37.234375 C 33.5625 -36.742188 33.757812 -36.238281 33.75 -35.71875 C 33.75 -35.5 33.738281 -35.269531 33.71875 -35.03125 C 33.695312 -34.789062 33.664062 -34.578125 33.625 -34.390625 C 33.519531 -33.992188 33.28125 -33.613281 32.90625 -33.25 C 32.601562 -33.019531 32.191406 -32.859375 31.671875 -32.765625 C 31.410156 -32.691406 31.148438 -32.632812 30.890625 -32.59375 C 30.640625 -32.550781 30.363281 -32.5 30.0625 -32.4375 C 29.800781 -32.40625 29.539062 -32.390625 29.28125 -32.390625 C 29.03125 -32.390625 28.753906 -32.394531 28.453125 -32.40625 L 25.625 -32.421875 C 24.96875 -32.390625 24.3125 -32.375 23.65625 -32.375 C 23.007812 -32.382812 22.375 -32.390625 21.75 -32.390625 C 21.78125 -31.242188 21.789062 -30.015625 21.78125 -28.703125 C 21.769531 -27.390625 21.742188 -25.863281 21.703125 -24.125 C 21.671875 -22.394531 21.632812 -20.382812 21.59375 -18.09375 C 21.5625 -15.800781 21.53125 -13.140625 21.5 -10.109375 L 21.46875 -5.890625 C 21.457031 -5.523438 21.46875 -5.25 21.5 -5.0625 C 21.5 -4.914062 21.5 -4.773438 21.5 -4.640625 C 21.5 -4.515625 21.484375 -4.359375 21.453125 -4.171875 C 21.359375 -3.847656 21.296875 -3.46875 21.265625 -3.03125 C 21.265625 -2.84375 21.242188 -2.664062 21.203125 -2.5 C 21.160156 -2.332031 21.101562 -2.15625 21.03125 -1.96875 C 20.882812 -1.820312 20.8125 -1.710938 20.8125 -1.640625 L 20.640625 -1.3125 C 20.453125 -0.9375 20.09375 -0.585938 19.5625 -0.265625 C 18.75 0.140625 17.847656 0.222656 16.859375 -0.015625 C 16.222656 -0.0976562 15.738281 -0.269531 15.40625 -0.53125 C 15.082031 -0.863281 14.847656 -1.191406 14.703125 -1.515625 C 14.484375 -1.929688 14.359375 -2.328125 14.328125 -2.703125 C 14.222656 -3.035156 14.171875 -3.382812 14.171875 -3.75 L 14.4375 -32.25 C 14.207031 -32.25 13.742188 -32.25 13.046875 -32.25 C 12.347656 -32.257812 11.597656 -32.28125 10.796875 -32.3125 C 10.003906 -32.34375 9.253906 -32.378906 8.546875 -32.421875 C 7.847656 -32.460938 7.367188 -32.5 7.109375 -32.53125 C 6.890625 -32.570312 6.546875 -32.628906 6.078125 -32.703125 C 5.617188 -32.785156 5.242188 -32.863281 4.953125 -32.9375 C 4.191406 -33.164062 3.585938 -33.519531 3.140625 -34 C 2.734375 -34.5 2.535156 -35.039062 2.546875 -35.625 C 2.546875 -35.851562 2.546875 -36.078125 2.546875 -36.296875 C 2.546875 -36.515625 2.585938 -36.71875 2.671875 -36.90625 C 2.785156 -37.351562 3.082031 -37.71875 3.5625 -38 C 3.707031 -38.113281 3.9375 -38.25 4.25 -38.40625 C 4.570312 -38.570312 4.882812 -38.691406 5.1875 -38.765625 C 5.625 -38.910156 6.175781 -39.015625 6.84375 -39.078125 C 7.144531 -39.109375 7.441406 -39.117188 7.734375 -39.109375 C 8.023438 -39.109375 8.335938 -39.109375 8.671875 -39.109375 C 9.960938 -39.097656 11.191406 -39.085938 12.359375 -39.078125 C 13.523438 -39.066406 14.753906 -39.078125 16.046875 -39.109375 C 18.191406 -39.128906 20.328125 -39.117188 22.453125 -39.078125 C 24.578125 -39.035156 26.691406 -38.96875 28.796875 -38.875 C 29.273438 -38.832031 29.734375 -38.769531 30.171875 -38.6875 C 30.617188 -38.613281 31.066406 -38.484375 31.515625 -38.296875 C 31.847656 -38.179688 32.160156 -38.039062 32.453125 -37.875 C 32.742188 -37.707031 32.976562 -37.492188 33.15625 -37.234375 Z M 33.15625 -37.234375 "/></g></g></g><g fill="#f37f78" fill-opacity="1"><g transform="translate(200.283323, 214.923849)"><g><path d="M 9.03125 -0.265625 C 9.0625 0.691406 8.742188 1.523438 8.078125 2.234375 C 7.421875 2.941406 6.613281 3.3125 5.65625 3.34375 C 4.695312 3.363281 3.863281 3.039062 3.15625 2.375 C 2.445312 1.707031 2.078125 0.894531 2.046875 -0.0625 C 2.015625 -1.019531 2.332031 -1.859375 3 -2.578125 C 3.664062 -3.304688 4.476562 -3.679688 5.4375 -3.703125 C 6.394531 -3.734375 7.222656 -3.40625 7.921875 -2.71875 C 8.628906 -2.039062 9 -1.222656 9.03125 -0.265625 Z M 9.03125 -0.265625 "/></g></g></g></svg>